<?xml version="1.0" encoding="utf-8"?>
<!-- Generator: Adobe Illustrator 27.5.0, SVG Export Plug-In . SVG Version: 6.00 Build 0)  -->
<svg version="1.1" xmlns="http://www.w3.org/2000/svg" xmlns:xlink="http://www.w3.org/1999/xlink" x="0px" y="0px"
	 viewBox="0 0 2200 2200" style="enable-background:new 0 0 2200 2200;" xml:space="preserve">
<g id="background">
	<rect style="fill:#FFFFFF;" width="2200" height="2200"/>
</g>
<g id="Objects">
	<g>
		<path style="fill:#2394E0;" d="M1998.727,1100c0.019,496.331-402.343,898.703-898.732,898.722
			c-113.641,0-222.367-21.09-322.457-59.577c-42.854-16.473-84.128-36.136-123.531-58.719
			C383.533,1725.539,201.282,1434.062,201.273,1100c0-23.74,0.925-47.269,2.737-70.556c16-206.097,101.526-392.695,233.143-536.38
			c164.293-179.34,400.425-291.796,662.841-291.786c185.2-0.01,357.32,56.011,500.331,152.033
			c224.006,150.375,376.607,398.892,396.241,683.998C1998.004,1058.023,1998.727,1078.929,1998.727,1100z"/>
		<path style="fill:#A1E367;" d="M925.937,1537.756c-3.181,9.157-9.533,16.829-14.497,25.148
			c-15.673,26.208-17.485,58.055-22.96,88.128c-5.494,30.054-17.225,62.19-44.049,76.802c-5.224,2.844-10.95,4.974-15.239,9.061
			c-5.61,5.349-7.904,13.186-10.371,20.521c-7.759,23.017-19.307,44.743-34.093,64.002c-9.523,12.463-20.453,23.991-27.981,37.745
			c-7.547,13.735-11.364,30.613-5.523,45.177c3.065,7.624,8.501,14.044,13.87,20.29c4.145,4.839,8.289,9.677,12.444,14.516
			c-42.854-16.473-84.128-36.136-123.531-58.719c-4.954-7.219-9.514-14.699-13.591-22.497
			c-17.041-32.55-24.916-68.995-35.693-104.157c-10.786-35.143-25.495-70.604-52.647-95.395
			c-23.866-21.803-55.886-33.958-77.197-58.267c-18.593-21.167-26.96-49.168-34.835-76.224c-4.906-16.945-9.716-35.673-2.255-51.635
			c5.456-11.721,17.292-21.437,16.54-34.333c-0.713-12.289-12.781-21.147-15.21-33.196c-2.217-10.902,3.923-21.736,11.027-30.285
			c2.699-3.258,6.4-6.622,10.757-9.995c-31.307-35.394-72.773-82.662-77.149-87.935c-18.352-22.034-48.589-47.577-97.063-64.503
			c-8.048-2.805-16.675-5.591-22.179-12.097c-4.019-4.79-5.812-10.998-7.258-17.09c-9.167-38.555-9.003-80.156-27.625-115.164
			c-7.21-13.514-16.993-25.572-25.62-38.208c16-206.097,101.526-392.695,233.143-536.38c26.497,16.453,55.481,28.145,84.687,20.386
			c22.295-5.88,43.442-22.988,65.775-17.282c4.578,1.147,9.176,3.547,11.287,7.75c5.051,10.121,28.126,26.68,38.208,30.825
			c5.841,2.39,10.555,7.084,12.482,13.08c2.834,8.897-2.053,14.661-7.162,19.567c-24.54,23.712-57.775,35.789-86.585,54.035
			c-28.849,18.285-55.375,48.03-52.194,82.017c2.294,24.376,19.47,44.782,38.488,60.204c1.783,1.446,3.663,2.882,5.918,3.345
			c3.229,0.684,6.477-0.848,9.321-2.525c15.065-8.723,27.307-22.15,34.584-37.958c7.171-15.615,9.755-33.649,20.589-47.028
			c10.757-13.302,28.001-19.673,44.926-22.294c32.251-4.993,68.339,3.239,89.39,28.184c21.032,24.993,20.482,68.011-6.072,87.048
			c-11.567,8.27-26.083,11.316-38.093,18.834c-12.049,7.557-21.552,23.268-14.641,35.683c3.856,6.95,12.174,11.316,6.689,23.355
			c-2.631,5.812-7.345,10.439-12.945,13.504c-16.743,9.263-34.517,16.54-52.898,21.745c-37.196,10.487-81.988,15.856-101.044,49.457
			c-12.617,22.285-9.687,51.616-25.099,72.04c-17.639,23.374-55.491,29.794-64.098,57.804c-3.509,11.403-0.945,23.818-2.978,35.577
			c-1.995,11.75-12.193,24.193-23.721,21.032c-11.827-19.056-21.957-40.088-39.808-53.611
			c-21.215-16.058-58.122-16.396-66.209,14.102c-2.024,7.528-1.6,15.499,0.231,23.075c9.109,37.553,45.389,59.385,74.874,83.617
			c16.762,13.745,74.797,76.657,112.755,155.696c3.046-1.552,6.063-3.027,9.003-4.405c12.087-5.668,25.495-7.836,38.738-6.304
			c59.124,6.911,117.624,27.238,165.026,63.317c22.768,17.33,4.894,34.085,29.601,57.187c43.843,40.996,93.823,4.016,151.457,27.9
			C926.45,1498.104,929.147,1528.628,925.937,1537.756z"/>
		<path style="fill:#A1E367;" d="M973.014,408.987c-4.297,25.479-35.828,36.336-48.349,58.951
			c-6.398,11.573-8.131,26.657-19.034,34.119c-8.963,6.145-21.737,5.128-30.03,12.151c-6.768,5.752-8.663,15.2-10.187,23.932
			c-1.848,10.788-3.719,21.576-5.567,32.363c-2.218,12.682-6.099,27.535-18.18,32.063c-11.249,4.25-23.169-2.957-33.818-8.57
			c-14.183-7.531-29.707-12.751-42.55-22.384c-12.844-9.61-22.869-25.456-19.612-41.188c1.779-8.524,7.3-16.54,6.075-25.179
			c-0.993-6.861-6.098-12.52-7.531-19.289c-2.356-11.319,5.821-21.714,11.273-31.878c6.168-11.458,9.217-24.532,8.755-37.514
			c-0.069-2.333-0.3-4.759-1.432-6.815c-2.102-3.765-6.676-5.29-10.673-6.976c-11.504-4.967-21.737-16.355-19.797-28.736
			c2.079-13.283,16.193-20.605,28.667-25.549c29.106-11.458,58.882-21.137,89.143-28.991c13.583-3.511,27.951-0.416,39.293,7.854
			c9.794,7.138,20.005,13.698,30.584,19.612c12.728,7.115,26.149,13.421,36.891,23.285
			C967.631,380.158,975.439,394.618,973.014,408.987z"/>
		<path style="fill:#A1E367;" d="M1226.741,394.578c-9.379,7.392-21.599,11.065-33.541,10.072
			c-11.897-0.97-23.354-6.653-31.393-15.5c-3.673-4.089-6.722-9.055-7.069-14.553c-0.3-5.475,2.818-11.411,8.108-12.913
			c3.95-1.155,8.154,0.277,12.243,0.092c8.363-0.323,14.854-6.907,21.206-12.359c2.264-1.94,4.943-3.396,8.039-4.343
			c14.276-4.343,30.007,4.597,33.056,19.196C1241.11,382.127,1231.708,390.674,1226.741,394.578z"/>
		<path style="fill:#A1E367;" d="M1852.072,951.765c8.501,34.661,23.075,67.857,42.815,97.593
			c14.805,22.304,38.777,44.859,64.725,38.141c8.829-2.313,21.726-5.938,24.338,2.815c0.858,2.988-0.222,6.111-1.33,8.983
			c-16.955,44.3-38.362,86.855-63.819,126.885c-18.256,28.724-39.374,58.527-39.346,92.571
			c0.019,28.646,15.403,56.088,12.878,84.638c-2.236,25.177-18.092,47.076-36.04,64.85c-13.321,13.176-28.261,25.071-38.844,40.56
			c-8.926,13.089-14.372,28.242-22.015,42.131c-22.352,40.608-65.197,68.252-110.846,75.154
			c-15.981,2.439-30.902-8.501-33.003-24.55c-4.945-37.967-30.526-76.388-32.126-116.254c-1.147-29.003,10.535-56.744,18.189-84.792
			c7.643-28.01,10.68-60.194-5.726-84.166c-7.701-11.306-19.412-20.174-23.895-33.1c-8.02-23.027,7.933-54.469-10.95-69.881
			c-4.183-3.431-9.485-5.215-14.776-6.487c-33.264-7.99-67.79,2.275-101.034,10.429c-33.215,8.154-70.026,13.783-100.253-2.207
			c-39.278-20.791-52.936-69.708-59.664-113.622c-5.533-36.011-8.791-74.151,5.552-107.598
			c10.863-25.321,31.056-45.948,40.656-71.771c6.034-16.328,7.971-34.806,18.911-48.319c12.993-16.01,35.056-20.772,55.327-24.502
			c41.591-7.634,83.106-15.306,124.659-22.921c11.046-2.053,21.87,3.923,26.382,14.179c6.342,14.391,18.468,26.333,33.244,31.789
			c20.733,7.586,45.63,2.063,61.197-13.591c4.53-4.53,8.665-10.044,14.824-11.885c4.791-1.407,9.88-0.251,14.747,0.877
			c19.74,4.646,37.9,16.116,61.688,22.468c12.935,3.47,26.256-4.81,28.454-17.996c0.299-1.783,0.385-4.068,0.308-6.709
			c-0.868-29.678-22.545-54.72-51.712-60.262c-39.326-7.47-97.015-24.01-133.999-59.703c-5.957-5.754-15.441-7.306-23.605-5.783
			c-8.174,1.513-15.605,8.521-15.567,16.8c0.029,3.142,1.06,6.246,0.906,9.35c-0.279,5.918-5.195,11.046-10.93,12.492
			c-5.754,1.455-12.02-0.357-16.772-3.923c-4.771-3.586-8.203-8.791-13.186-12.048c-10.535-6.844-25.09-2.949-34.873,4.935
			c-9.812,7.894-16.338,18.969-24.319,28.647c-16.685,20.203-42.073,34.979-68.108,32.454
			c-26.063-2.496-50.218-26.343-47.278-52.358c1.109-9.745,6.304-19.48,15.085-23.818c6.149-3.007,13.292-3.094,20.174-3.508
			c6.834-0.414,14.111-1.349,19.422-5.658c5.359-4.318,7.624-13.089,2.969-18.121c-2.487-2.66-6.178-3.701-9.407-5.321
			c-14.179-7.036-18.825-28.097-8.954-40.444c10.487-13.147,30.671-13.793,43.432-24.743c10.439-9.003,14.256-23.384,22.198-34.671
			c6.429-9.118,16.492-18.449,31.191-20.482c4.135-0.588,7.403-4,7.451-8.145v-0.087c0.087-6.044-2.063-12.434-6.95-16.02
			c-3.615-2.631-8.203-3.431-12.636-4.154c-4.713-0.742-9.668-1.484-14.179,0.116c-5.764,2.034-15.461,10.265-32.338-1.986
			c-19.972-14.497-19.432-45.813-18.699-54.103c2.535-28.859,12.656-57.042,29.071-80.908c4.366-6.313,9.484-12.058,15.172-17.205
			c35.567-32.232,89.014-40.242,129.469-43.51c224.006,150.375,376.607,398.892,396.241,683.998
			c-20.675,0.723-34.719-16.174-38.738-21.176C1931.419,983.341,1893.394,959.977,1852.072,951.765z"/>
		<path style="fill:#2D4D5E;" d="M1099.996,2018c-113.536,0-224.354-20.477-329.377-60.862
			c-43.384-16.677-85.845-36.86-126.198-59.987c-137.962-79.003-253.734-193.09-334.791-329.922
			c-41.029-69.26-72.73-143.607-94.223-220.976c-22.168-79.8-33.409-162.651-33.412-246.252c0-23.972,0.94-48.214,2.795-72.052
			c8.016-103.24,33.18-203.461,74.795-297.874c40.421-91.705,95.38-175.827,163.353-250.032
			c41.935-45.776,88.661-87.441,138.88-123.839c50.647-36.708,105.169-68.291,162.053-93.87C842.41,209.03,968.953,182,1099.961,182
			c0.027,0,0.056,0,0.083,0c183.001,0,359.702,53.701,511.028,155.306c56.98,38.251,109.781,82.999,156.933,133
			c47.236,50.089,88.853,105.503,123.695,164.702c35.356,60.072,63.81,124.178,84.571,190.538
			c21.302,68.09,34.602,138.892,39.529,210.439c1.462,21.094,2.205,42.636,2.205,64.015l0,0c0,0.001,0-0.001,0,0
			c0.005,123.916-24.266,244.137-72.137,357.322c-46.235,109.315-112.422,207.487-196.723,291.788
			c-84.301,84.301-182.476,150.491-291.797,196.73C1344.156,1993.717,1223.925,2017.995,1099.996,2018z M1099.963,220.555
			c-125.53,0-246.738,25.885-360.279,76.941c-54.489,24.502-106.72,54.757-155.24,89.924
			c-48.12,34.877-92.893,74.801-133.076,118.665c-65.126,71.097-117.782,151.69-156.503,239.538
			c-39.856,90.424-63.957,186.416-71.635,285.312c-1.778,22.85-2.679,46.086-2.679,69.063
			c0.002,80.114,10.77,159.493,32.005,235.933c20.584,74.098,50.947,145.306,90.246,211.645
			c77.666,131.106,188.593,240.418,320.785,316.118c38.653,22.153,79.317,41.483,120.868,57.454
			c100.592,38.681,206.754,58.294,315.54,58.294c118.742-0.005,233.92-23.258,342.334-69.114
			c104.725-44.296,198.781-107.711,279.554-188.484c80.773-80.773,144.185-174.825,188.475-279.544
			c45.85-108.406,69.096-223.574,69.092-342.302v0c0-20.493-0.711-41.137-2.113-61.358c-4.721-68.551-17.459-136.37-37.862-201.585
			c-19.883-63.555-47.136-124.955-81.002-182.494c-33.382-56.718-73.257-109.811-118.517-157.806
			c-45.183-47.913-95.776-90.79-150.374-127.442c-144.941-97.318-314.232-148.761-489.54-148.761
			C1100.012,220.556,1099.991,220.554,1099.963,220.555z"/>
		<g>
			<ellipse style="fill:#2D4D5E;" cx="773.06" cy="1034.62" rx="96.236" ry="118.557"/>
			<circle style="fill:#FFFFFF;" cx="744.1" cy="1002.908" r="32.526"/>
			<circle style="fill:#FFFFFF;" cx="796.141" cy="1063.406" r="12.82"/>
		</g>
		<g>
			<ellipse style="fill:#2D4D5E;" cx="1124.002" cy="1034.62" rx="96.236" ry="118.557"/>
			<circle style="fill:#FFFFFF;" cx="1095.042" cy="1002.908" r="32.526"/>
			<circle style="fill:#FFFFFF;" cx="1147.083" cy="1063.406" r="12.82"/>
		</g>
		<path style="fill:#2D4D5E;" d="M1019.402,1188.63H877.661c0,0-5.855,76.111,70.871,76.111S1019.402,1188.63,1019.402,1188.63z"/>
	</g>
</g>
</svg>
